<svg width="164" height="28" viewBox="0 0 164 28" fill="none" xmlns="http://www.w3.org/2000/svg">
<path d="M21.8762 19.5545C20.1618 21.8256 17.3782 23.2806 14.4302 23.2806C12.9309 23.2806 11.4758 22.8504 9.9765 22.0407C7.02214 20.4148 5.22549 17.1188 5.22549 13.9937C5.22549 12.4121 5.65567 10.8685 6.50972 9.36918C7.3258 7.86986 8.47718 6.71216 9.9765 5.90239C11.4758 5.08631 12.9309 4.70673 14.4302 4.70673C17.3845 4.70673 20.0795 6.16177 21.7939 8.60371L25.906 5.52282C22.9959 1.88522 18.8396 0 14.4302 0C10.5332 0 6.89562 1.49932 4.23859 4.06778C1.58156 6.63624 0 10.1916 0 14C0 17.8084 1.58156 21.3638 4.23859 23.9322C6.89562 26.5007 10.5332 28 14.4302 28C18.8396 28 22.9896 26.1148 25.906 22.4772L21.8825 19.5671L21.8762 19.5545ZM37.7994 14.4618C39.5138 14.4618 40.9245 13.0511 40.9245 11.3366C40.9245 9.62223 39.5138 8.21148 37.7994 8.21148C36.085 8.21148 34.6742 9.62223 34.6742 11.3366C34.6742 13.0511 36.085 14.4618 37.7994 14.4618ZM33.7316 27.4306V8.59105H28.7655V27.4306H33.7316ZM57.1071 21.8256C55.9051 23.0655 54.4501 23.6665 52.7863 23.6665C50.1735 23.6665 47.7316 21.8699 47.0484 19.4279H62.0732L62.1175 18.0172C62.1175 15.3222 61.0926 12.4121 58.948 10.5712C56.8098 8.73023 54.4501 8.2178 52.3561 8.2178C46.5359 8.2178 42.1265 12.5829 42.1265 18.0235C42.1265 23.4578 46.9661 27.8292 52.7863 27.8292C55.4813 27.8292 58.1383 26.8866 60.0235 25.305L57.1134 21.8382L57.1071 21.8256ZM47.4722 15.4044C48.3705 13.5635 50.2558 12.3615 52.3498 12.3615C54.4501 12.3615 56.2024 13.6457 56.93 15.4044H47.4659H47.4722ZM64.5531 21.1423C64.5531 25.3809 67.5518 27.8608 71.8283 27.8608C73.6692 27.8608 75.2128 27.3927 76.4971 26.4501V27.437H81.1216V8.59738H67.2924V12.7917H76.4971V20.5856C76.4971 22.5974 74.3588 24.141 72.4736 24.141C70.291 24.141 69.0511 22.4266 69.0511 20.9715C69.0511 19.1306 70.6326 17.8021 72.4736 17.8021V14.0316C66.9065 14.0316 64.5531 17.9729 64.5531 21.136V21.1423ZM88.1817 12.9625V27.4306H93.1035V12.9182L98.7971 12.9625V8.59738H93.1035V1.40443L88.1817 4.82693V8.59738H83.8988V12.9625H88.1817ZM101.024 8.59738V18.0172C101.113 24.2675 105.775 27.8229 110.956 27.8229C116.776 27.8229 120.844 23.502 120.844 18.0172V8.59738H116.137V18.0172C116.093 21.2309 113.911 23.6665 110.956 23.6665C107.875 23.6665 105.775 21.2246 105.775 18.0172V8.59738H101.024ZM124.014 8.64166V27.437H128.98V12.836H135.698V27.437H140.664V12.836H147.427V27.437H152.393V8.64166H124.007H124.014Z" fill="#272727"/>
<path fill-rule="evenodd" clip-rule="evenodd" d="M159.846 4.7005C158.929 6.35165 157.562 7.72445 155.911 8.63543C157.562 9.55274 158.929 10.9192 159.846 12.5704C160.764 10.9192 162.13 9.55274 163.781 8.63543C162.13 7.71812 160.757 6.35165 159.846 4.7005Z" fill="#2FFF97"/>
</svg>
